<svg xmlns="http://www.w3.org/2000/svg" xmlns:xlink="http://www.w3.org/1999/xlink" width="1520" zoomAndPan="magnify" viewBox="0 0 1140 547.499989" height="730" preserveAspectRatio="xMidYMid meet" version="1.2"><defs><clipPath id="74943cd209"><path d="M 0.519531 0 L 1139.480469 0 L 1139.480469 547 L 0.519531 547 Z M 0.519531 0 "/></clipPath><clipPath id="508ac55233"><path d="M 0.519531 0 L 185.601562 0 L 185.601562 160 L 0.519531 160 Z M 0.519531 0 "/></clipPath><clipPath id="fcb3dd8c77"><path d="M 0.519531 0 L 97 0 L 97 188.078125 L 0.519531 188.078125 Z M 0.519531 0 "/></clipPath><clipPath id="05042ac099"><path d="M 0.519531 0 L 174 0 L 174 162 L 0.519531 162 Z M 0.519531 0 "/></clipPath></defs><g id="ae6c1bf4d0"><g clip-rule="nonzero" clip-path="url(#74943cd209)"><path style=" stroke:none;fill-rule:nonzero;fill:#ffffff;fill-opacity:1;" d="M 0.519531 0 L 1139.480469 0 L 1139.480469 547 L 0.519531 547 Z M 0.519531 0 "/><path style=" stroke:none;fill-rule:nonzero;fill:#ffffff;fill-opacity:1;" d="M 0.519531 0 L 1139.480469 0 L 1139.480469 547 L 0.519531 547 Z M 0.519531 0 "/></g><g clip-rule="nonzero" clip-path="url(#508ac55233)"><path style=" stroke:none;fill-rule:nonzero;fill:#19a7ce;fill-opacity:1;" d="M 127.132812 22.292969 L 122.746094 14.691406 L 101.117188 14.691406 L 94.207031 26.660156 L 93.894531 27.203125 L 90.304688 33.425781 L 95.3125 42.09375 L 95.621094 42.636719 L 101.117188 52.15625 L 122.746094 52.15625 L 133.5625 33.425781 L 128.070312 23.914062 Z M 122.25 51.292969 L 101.617188 51.292969 L 96.121094 41.773438 L 95.808594 41.230469 L 91.300781 33.425781 L 94.394531 28.066406 L 94.707031 27.523438 L 101.617188 15.554688 L 122.25 15.554688 L 126.636719 23.15625 L 127.570312 24.773438 L 132.566406 33.425781 Z M -6.726562 46.316406 L 1.09375 59.867188 L 18.734375 59.867188 L 27.554688 44.589844 L 20.039062 31.582031 L 19.730469 31.039062 L 18.734375 29.316406 L 1.09375 29.316406 L -7.726562 44.589844 L -7.039062 45.777344 L -6.726562 46.320312 Z M 1.46875 29.960938 L 18.359375 29.960938 L 19.355469 31.6875 L 19.667969 32.226562 L 26.804688 44.589844 L 18.359375 59.21875 L 1.46875 59.21875 L -5.980469 46.320312 L -6.292969 45.777344 L -6.980469 44.589844 Z M 185.585938 0.00390625 L 182.78125 4.859375 L 182.46875 5.398438 L 178.511719 12.257812 L 160.871094 12.257812 L 153.796875 0.00390625 L 154.542969 0.00390625 L 161.246094 11.609375 L 178.136719 11.609375 L 182.097656 4.75 L 182.410156 4.210938 L 184.835938 0.00390625 Z M 1.632812 80.3125 L -0.582031 84.152344 L -0.894531 84.691406 L -7.1875 95.589844 L -3.101562 102.660156 L -2.792969 103.199219 L 1.632812 110.863281 L 19.273438 110.863281 L 26.285156 98.71875 L 26.597656 98.179688 L 28.09375 95.589844 L 19.273438 80.3125 Z M 25.847656 98.179688 L 25.535156 98.71875 L 18.898438 110.21875 L 2.007812 110.21875 L -2.042969 103.199219 L -2.355469 102.660156 L -6.4375 95.589844 L -0.519531 85.339844 L -0.207031 84.796875 L 2.007812 80.960938 L 18.898438 80.960938 L 27.347656 95.589844 L 25.851562 98.179688 Z M 2.855469 129.371094 L 8.277344 138.761719 L 1.46875 150.554688 L 0.53125 152.171875 L -3.671875 159.457031 L -15.214844 159.457031 L -15.214844 158.484375 L -4.234375 158.484375 L -0.589844 152.171875 L 0.34375 150.554688 L 7.152344 138.761719 L 1.734375 129.371094 L 1.421875 128.832031 L -4.234375 119.035156 L -15.214844 119.035156 L -15.214844 118.0625 L -3.671875 118.0625 L 2.542969 128.832031 Z M 92.207031 19.597656 L 84.636719 32.714844 L 60.738281 32.714844 L 58.570312 28.964844 L 58.257812 28.421875 L 48.789062 12.015625 L 52.386719 5.785156 L 52.695312 5.246094 L 55.722656 0.00390625 L 56.84375 0.00390625 L 53.816406 5.246094 L 53.503906 5.789062 L 49.90625 12.019531 L 58.820312 27.453125 L 59.128906 27.992188 L 61.296875 31.746094 L 84.074219 31.746094 L 91.085938 19.597656 L 91.398438 19.058594 L 95.460938 12.019531 L 92.683594 7.207031 L 92.371094 6.664062 L 88.527344 0.00390625 L 89.648438 0.00390625 L 92.933594 5.691406 L 93.246094 6.234375 L 96.585938 12.019531 L 92.519531 19.058594 Z M 92.207031 19.597656 "/></g><g clip-rule="nonzero" clip-path="url(#fcb3dd8c77)"><path style=" stroke:none;fill-rule:nonzero;fill:#085d9e;fill-opacity:1;" d="M -6.253906 5.355469 L -9.34375 0.00390625 L -7.476562 0.00390625 L -4.386719 5.355469 L -4.074219 5.894531 L 1.996094 16.414062 L 24.402344 16.414062 L 33.878906 0.00390625 L 35.746094 0.00390625 L 25.335938 18.035156 L 1.0625 18.035156 L -5.945312 5.894531 Z M 9.296875 85.96875 L 9.222656 85.835938 L 8.660156 84.867188 L -0.121094 69.652344 L -0.683594 68.679688 L -2.839844 64.945312 L -15.214844 64.945312 L -15.214844 66.566406 L -3.773438 66.566406 L -1.617188 70.300781 L -1.058594 71.269531 L 6.789062 84.867188 L 7.351562 85.835938 L 7.425781 85.96875 L -3.773438 105.371094 L -15.214844 105.371094 L -15.214844 106.992188 L -2.839844 106.992188 Z M 68.800781 37.953125 L 77.324219 52.714844 L 74.375 57.820312 L 74.0625 58.359375 L 68.800781 67.476562 L 51.753906 67.476562 L 45.835938 57.226562 L 45.523438 56.6875 L 43.230469 52.714844 L 51.753906 37.953125 Z M 75.453125 52.714844 L 67.867188 39.570312 L 52.691406 39.570312 L 45.101562 52.714844 L 46.460938 55.066406 L 46.773438 55.605469 L 52.691406 65.859375 L 67.867188 65.859375 L 73.132812 56.742188 L 73.445312 56.199219 L 75.457031 52.714844 Z M -15.214844 150.550781 L -15.214844 152.171875 L 2.347656 152.171875 L 12.242188 169.3125 L 2.347656 186.449219 L -15.214844 186.449219 L -15.214844 188.070312 L 3.28125 188.070312 L 14.113281 169.3125 L 3.28125 150.550781 Z M 36.257812 108.339844 L 41.230469 116.949219 L 31.523438 133.761719 L 12.105469 133.761719 L 9.242188 128.800781 L 8.929688 128.261719 L 2.398438 116.949219 L 3.128906 115.683594 L 3.441406 115.144531 L 12.105469 100.132812 L 31.523438 100.132812 L 35.886719 107.691406 L 36.257812 108.335938 Z M 40.605469 116.949219 L 35.636719 108.339844 L 35.261719 107.691406 L 31.210938 100.675781 L 12.417969 100.675781 L 4.0625 115.148438 L 3.75 115.6875 L 3.019531 116.949219 L 9.242188 127.722656 L 9.554688 128.261719 L 12.417969 133.222656 L 31.210938 133.222656 Z M -2.492188 23.242188 L -12.15625 6.503906 L -12.199219 6.429688 L -15.214844 6.429688 L -15.214844 6.96875 L -12.511719 6.96875 L -12.46875 7.042969 L -3.117188 23.242188 L -12.511719 39.515625 L -15.214844 39.515625 L -15.214844 40.058594 L -12.199219 40.058594 Z M 96.214844 0.00390625 L 92.933594 5.691406 L 92.371094 6.667969 L 90.046875 10.691406 L 71.253906 10.691406 L 65.085938 0.00390625 L 64.460938 0.00390625 L 70.945312 11.230469 L 90.359375 11.230469 L 92.683594 7.207031 L 93.246094 6.234375 L 96.839844 0.00390625 Z M 33.578125 63.050781 L 33.890625 63.59375 L 34.433594 64.53125 L 27.691406 76.203125 L 14.210938 76.203125 L 7.472656 64.53125 L 11.679688 57.242188 L 11.992188 56.703125 L 14.210938 52.855469 L 27.691406 52.855469 Z M 33.808594 64.53125 L 33.265625 63.59375 L 32.953125 63.050781 L 27.378906 53.394531 L 14.523438 53.394531 L 12.300781 57.242188 L 11.992188 57.785156 L 8.09375 64.53125 L 14.523438 75.664062 L 27.378906 75.664062 Z M 33.808594 64.53125 "/></g><g clip-rule="nonzero" clip-path="url(#05042ac099)"><path style=" stroke:none;fill-rule:nonzero;fill:#085d9e;fill-opacity:1;" d="M 58.976562 58.683594 L 56.980469 55.230469 L 33.332031 55.230469 L 31.992188 57.550781 L 31.058594 59.167969 L 21.507812 75.710938 L 25.234375 82.164062 L 25.605469 82.8125 L 33.332031 96.195312 L 56.984375 96.195312 L 68.808594 75.710938 L 59.910156 60.304688 Z M 56.667969 95.65625 L 33.644531 95.65625 L 25.917969 82.273438 L 25.542969 81.625 L 22.128906 75.714844 L 31.371094 59.710938 L 32.304688 58.089844 L 33.644531 55.769531 L 56.667969 55.769531 L 58.664062 59.222656 L 59.597656 60.84375 L 68.179688 75.714844 Z M 23.355469 25.835938 L 20.039062 31.578125 L 19.667969 32.226562 L 11.53125 46.316406 L -12.117188 46.316406 L -15.214844 40.953125 L -15.214844 39.875 L -15.109375 40.058594 L -11.808594 45.777344 L 11.21875 45.777344 L 19.351562 31.6875 L 19.726562 31.039062 L 22.730469 25.835938 L 18.226562 18.035156 L 17.289062 16.414062 L 11.21875 5.894531 L -11.804688 5.894531 L -12.15625 6.503906 L -12.46875 7.042969 L -15.214844 11.800781 L -15.214844 10.71875 L -13.050781 6.96875 L -12.738281 6.425781 L -12.117188 5.355469 L 11.53125 5.355469 L 17.917969 16.414062 L 18.851562 18.03125 Z M 122.308594 0.00390625 L 122.933594 0.00390625 L 118.238281 8.136719 L 108.15625 8.136719 L 106.777344 5.742188 L 105.839844 4.121094 L 103.464844 0.00390625 L 104.085938 0.00390625 L 106.152344 3.582031 L 107.085938 5.203125 L 108.46875 7.597656 L 117.925781 7.597656 Z M 173.523438 11.261719 L 161.699219 31.742188 L 138.050781 31.742188 L 127.5625 13.574219 L 127.539062 13.535156 C 127.375 13.574219 127.207031 13.59375 127.035156 13.59375 C 125.8125 13.59375 124.820312 12.605469 124.820312 11.382812 C 124.820312 10.160156 125.8125 9.167969 127.035156 9.167969 C 127.164062 9.167969 127.292969 9.179688 127.414062 9.203125 L 128.046875 8.105469 L 128.980469 6.488281 L 132.726562 0.00390625 L 133.347656 0.00390625 L 129.292969 7.027344 L 128.359375 8.648438 L 127.945312 9.367188 C 128.710938 9.714844 129.246094 10.484375 129.246094 11.382812 C 129.246094 12.28125 128.761719 12.980469 128.050781 13.347656 L 138.363281 31.203125 L 161.386719 31.203125 L 172.902344 11.261719 L 169.515625 5.398438 L 169.140625 4.75 L 166.402344 0.00390625 L 167.027344 0.00390625 L 169.453125 4.210938 L 169.828125 4.859375 Z M 42.773438 116.964844 C 42.773438 118.1875 41.78125 119.175781 40.5625 119.175781 C 39.339844 119.175781 38.347656 118.1875 38.347656 116.964844 C 38.347656 115.742188 39.339844 114.75 40.5625 114.75 C 41.78125 114.75 42.773438 115.742188 42.773438 116.964844 Z M -1.8125 158.960938 C -1.8125 160.179688 -2.804688 161.171875 -4.027344 161.171875 C -5.246094 161.171875 -6.238281 160.179688 -6.238281 158.960938 C -6.238281 157.738281 -5.246094 156.746094 -4.027344 156.746094 C -2.804688 156.746094 -1.8125 157.738281 -1.8125 158.960938 Z M 36.617188 33.945312 C 36.617188 35.167969 37.609375 36.15625 38.832031 36.15625 C 39.832031 36.15625 40.679688 35.492188 40.953125 34.578125 L 55.328125 34.578125 L 58.570312 28.964844 L 59.128906 27.992188 L 63.796875 19.914062 L 55.328125 5.246094 L 38.394531 5.246094 L 29.925781 19.914062 L 37.179688 32.472656 C 36.832031 32.867188 36.617188 33.378906 36.617188 33.945312 Z M 38.707031 5.785156 L 55.015625 5.785156 L 63.171875 19.914062 L 58.820312 27.453125 L 58.257812 28.425781 L 55.015625 34.039062 L 41.042969 34.039062 C 41.042969 34.007812 41.042969 33.976562 41.042969 33.945312 C 41.042969 32.722656 40.054688 31.730469 38.832031 31.730469 C 38.371094 31.730469 37.945312 31.871094 37.59375 32.113281 L 30.550781 19.914062 Z M -3.269531 25.472656 C -4.492188 25.472656 -5.484375 24.480469 -5.484375 23.257812 C -5.484375 22.035156 -4.492188 21.046875 -3.269531 21.046875 C -2.050781 21.046875 -1.058594 22.035156 -1.058594 23.257812 C -1.058594 24.480469 -2.050781 25.472656 -3.269531 25.472656 Z M -3.269531 25.472656 "/></g></g></svg>